<svg width="34" height="35" viewBox="0 0 34 35" fill="none" xmlns="http://www.w3.org/2000/svg">
<path d="M13.1751 30.8888C13.8793 30.8888 14.4501 30.3179 14.4501 29.6138C14.4501 28.9096 13.8793 28.3388 13.1751 28.3388C12.471 28.3388 11.9001 28.9096 11.9001 29.6138C11.9001 30.3179 12.471 30.8888 13.1751 30.8888Z" stroke="#1A1A1A" stroke-width="2" stroke-linecap="round" stroke-linejoin="round"/>
<path d="M25.9251 30.8888C26.6293 30.8888 27.2001 30.3179 27.2001 29.6138C27.2001 28.9096 26.6293 28.3388 25.9251 28.3388C25.221 28.3388 24.6501 28.9096 24.6501 29.6138C24.6501 30.3179 25.221 30.8888 25.9251 30.8888Z" stroke="#1A1A1A" stroke-width="2" stroke-linecap="round" stroke-linejoin="round"/>
<path d="M4.25 6.66379H8.88636L11.9927 22.5975C12.0987 23.1454 12.389 23.6375 12.8128 23.9877C13.2366 24.338 13.7669 24.5241 14.3109 24.5133H25.5773C26.1212 24.5241 26.6515 24.338 27.0753 23.9877C27.4992 23.6375 27.7895 23.1454 27.8955 22.5975L29.75 12.6136H10.0455" stroke="#1A1A1A" stroke-width="2" stroke-linecap="round" stroke-linejoin="round"/>
</svg>
