<svg width="16" height="16" viewBox="0 0 16 16" fill="none" xmlns="http://www.w3.org/2000/svg">
<path d="M10.5303 9.46967C10.2374 9.17678 9.76256 9.17678 9.46967 9.46967C9.17678 9.76256 9.17678 10.2374 9.46967 10.5303L10.5303 9.46967ZM13.4697 14.5303C13.7626 14.8232 14.2374 14.8232 14.5303 14.5303C14.8232 14.2374 14.8232 13.7626 14.5303 13.4697L13.4697 14.5303ZM6.66667 10.5833C4.50355 10.5833 2.75 8.82978 2.75 6.66667H1.25C1.25 9.65821 3.67512 12.0833 6.66667 12.0833V10.5833ZM10.5833 6.66667C10.5833 8.82978 8.82978 10.5833 6.66667 10.5833V12.0833C9.65821 12.0833 12.0833 9.65821 12.0833 6.66667H10.5833ZM6.66667 2.75C8.82978 2.75 10.5833 4.50355 10.5833 6.66667H12.0833C12.0833 3.67512 9.65821 1.25 6.66667 1.25V2.75ZM6.66667 1.25C3.67512 1.25 1.25 3.67512 1.25 6.66667H2.75C2.75 4.50355 4.50355 2.75 6.66667 2.75V1.25ZM9.46967 10.5303L13.4697 14.5303L14.5303 13.4697L10.5303 9.46967L9.46967 10.5303Z" fill="#303D4F"/>
</svg>
